<?xml version="1.0" encoding="utf-8"?>
<!-- Generator: Adobe Illustrator 22.1.0, SVG Export Plug-In . SVG Version: 6.00 Build 0)  -->
<svg version="1.1" id="レイヤー_1" xmlns="http://www.w3.org/2000/svg" xmlns:xlink="http://www.w3.org/1999/xlink" x="0px"
	 y="0px" viewBox="0 0 588.235 185.063" style="enable-background:new 0 0 588.235 185.063;" xml:space="preserve">
<style type="text/css">
	.st0{fill:#070001;}
	.st1{fill:#D62B67;}
	.st2{fill:#666767;}
	.st3{fill:#606060;}
</style>
<g>
	<g>
		<path class="st0" d="M58.296,95.162l34.415-1.456l0.431,10.448l-21.626,0.902l0.539,12.876l20.21-0.858l0.439,10.365l-20.21,0.838
			l0.947,22.644l-12.78,0.534L58.296,95.162z"/>
		<path class="st0" d="M103.521,122.045c-0.229-5.511-0.479-9.431-0.89-13.099l8.94-0.374l0.662,7.76l0.33-0.02
			c1.768-5.847,6.407-8.973,10.749-9.151c1.003-0.051,1.587,0.013,2.432,0.145l0.402,9.692c-0.833-0.133-1.763-0.26-3.013-0.216
			c-4.932,0.203-8.135,3.521-8.853,8.161c-0.141,0.915-0.261,2.021-0.211,3.189l0.883,21.044l-10.275,0.439L103.521,122.045z"/>
		<path class="st0" d="M164.822,137.297c0.16,3.673,0.472,7.251,0.998,9.743l-9.267,0.393l-0.863-4.492l-0.247,0.025
			c-2.38,3.272-6.54,5.701-11.803,5.923c-8.192,0.349-13.035-5.384-13.295-11.574c-0.426-10.264,8.459-15.831,23.495-16.377
			l-0.025-0.669c-0.108-2.675-1.384-7.053-8.568-6.755c-4.008,0.173-8.133,1.597-10.815,3.465l-2.276-6.597
			c2.923-1.956,8.109-3.939,14.54-4.207c13.035-0.547,17.14,7.562,17.501,16.421L164.822,137.297z M154.376,127.613
			c-7.271,0.133-14.141,2.014-13.88,8.197c0.164,3.997,2.834,5.739,6.093,5.599c4.092-0.171,6.986-2.968,7.786-5.935
			c0.222-0.763,0.26-1.602,0.234-2.27L154.376,127.613z"/>
		<path class="st0" d="M174.896,118.048c-0.196-4.684-0.452-8.6-0.853-12.1l8.867-0.369l0.66,5.992l0.255-0.012
			c1.875-3.247,5.388-7.169,12.241-7.456c5.343-0.229,9.653,2.613,11.591,7.048h0.16c1.329-2.32,2.93-4.067,4.798-5.318
			c2.198-1.678,4.747-2.62,8.084-2.766c6.768-0.278,13.816,4.03,14.356,17.057l1.013,23.967l-10.029,0.432l-0.943-22.471
			c-0.285-6.77-2.79-10.684-7.72-10.481c-3.508,0.146-5.993,2.766-6.953,5.746c-0.204,1.01-0.399,2.269-0.355,3.438l1.023,24.391
			l-10.022,0.419l-0.987-23.551c-0.234-5.682-2.662-9.598-7.423-9.393c-3.844,0.158-6.311,3.272-7.111,6.151
			c-0.376,1.018-0.491,2.199-0.438,3.369l1.005,24.061l-10.022,0.406L174.896,118.048z"/>
		<path class="st0" d="M253.453,125.876c0.559,7.347,6.456,10.27,12.978,10.004c4.753-0.203,8.146-1.01,11.197-2.307l1.8,7.028
			c-3.445,1.578-8.244,2.951-14.089,3.185c-13.201,0.559-21.317-7.302-21.831-19.746c-0.477-11.275,5.93-22.18,18.958-22.721
			c13.275-0.564,17.999,10.125,18.373,19.061c0.075,1.918-0.026,3.432-0.145,4.366L253.453,125.876z M271.032,117.945
			c-0.076-3.755-2.016-9.876-8.853-9.583c-6.361,0.266-8.79,6.14-9.019,10.333L271.032,117.945z"/>
		<path class="st1" d="M304.981,85.553c4.633-0.935,10.714-1.614,17.16-1.881c10.683-0.444,17.706,1.176,23.292,5.052
			c6.038,4.1,10.004,10.869,10.423,20.814c0.457,10.778-3.165,18.366-8.402,23.197c-5.726,5.173-14.642,7.886-25.668,8.357
			c-6.603,0.273-11.301,0.05-14.491-0.235L304.981,85.553z M319.688,130.968c1.086,0.21,2.846,0.133,4.436,0.057
			c11.528-0.394,18.787-7.055,18.22-20.502c-0.406-11.7-7.513-17.592-18.461-17.135c-2.848,0.115-4.664,0.445-5.739,0.745
			L319.688,130.968z"/>
		<path class="st1" d="M371.972,120.914c0.567,7.333,6.464,10.269,12.971,9.996c4.766-0.208,8.161-1.016,11.205-2.312l1.798,7.041
			c-3.45,1.569-8.244,2.943-14.088,3.177c-13.194,0.553-21.303-7.308-21.839-19.752c-0.463-11.274,5.931-22.168,18.973-22.714
			c13.275-0.559,17.99,10.117,18.366,19.06c0.088,1.92-0.02,3.432-0.146,4.36L371.972,120.914z M389.558,112.969
			c-0.076-3.751-2.016-9.869-8.859-9.577c-6.349,0.266-8.776,6.138-9.027,10.326L389.558,112.969z"/>
		<path class="st1" d="M407.637,127.453c2.41,1.316,6.895,2.638,10.569,2.478c4.514-0.184,6.444-2.116,6.323-4.785
			c-0.115-2.758-1.837-4.105-6.926-5.649c-8.046-2.422-11.58-6.629-11.695-11.401c-0.299-7.176,5.389-13.016,14.833-13.417
			c4.508-0.191,8.485,0.814,10.887,1.971l-1.709,7.352c-1.793-0.935-5.105-2.122-8.701-1.983c-3.678,0.159-5.598,2.001-5.497,4.506
			c0.108,2.593,2.078,3.761,7.341,5.376c7.454,2.37,11.04,5.987,11.371,11.992c0.316,7.359-5.218,13.023-15.99,13.474
			c-4.933,0.203-9.413-0.858-12.495-2.402L407.637,127.453z"/>
		<path class="st1" d="M452.132,82.909c0.125,3.089-2.021,5.604-5.617,5.751c-3.427,0.153-5.779-2.174-5.91-5.268
			c-0.136-3.172,2.101-5.694,5.528-5.84C449.633,77.405,451.921,79.731,452.132,82.909z M443.366,135.398l-1.7-40.674l10.358-0.433
			l1.702,40.681L443.366,135.398z"/>
		<path class="st1" d="M501.34,127.021c0.363,8.53-1.144,14.706-5.242,18.722c-4.101,3.934-9.89,5.359-15.489,5.587
			c-5.18,0.216-10.733-0.642-14.342-2.663l1.926-7.875c2.662,1.405,7.065,2.816,11.992,2.613
			c6.685-0.293,11.553-4.004,11.184-12.775l-0.146-3.513l-0.164,0.005c-2.192,3.699-6.266,6.293-11.612,6.515
			c-10.105,0.419-17.642-7.627-18.124-19.149c-0.56-13.371,7.785-21.836,17.553-22.25c6.182-0.254,9.984,2.606,12.043,5.86h0.17
			l0.191-5.453l8.937-0.381c-0.045,2.77-0.076,6.113,0.157,11.712L501.34,127.021z M490.296,109.004
			c-0.046-0.922-0.167-1.92-0.459-2.74c-1.233-3.724-4.284-6.431-8.617-6.259c-5.772,0.254-9.82,5.433-9.47,13.702
			c0.286,6.933,4.029,12.392,10.468,12.12c3.838-0.165,7.078-2.809,8.088-6.532c0.204-1.094,0.312-2.53,0.261-3.699L490.296,109.004
			z"/>
		<path class="st1" d="M511.084,103.945c-0.198-4.671-0.452-8.598-0.853-12.095l9.024-0.381l0.768,6.075l0.248-0.012
			c1.62-3.247,5.885-7.271,12.647-7.557c7.099-0.299,14.648,3.979,15.177,16.849l1.017,24.143l-10.269,0.426l-0.968-22.967
			c-0.24-5.842-2.592-10.188-8.203-9.947c-4.093,0.178-6.8,3.222-7.76,6.354c-0.293,0.923-0.338,2.181-0.274,3.35l0.998,23.896
			l-10.36,0.438L511.084,103.945z"/>
		<path class="st0" d="M81.13,57.983c0.006,0.331-0.108,0.599-0.344,0.795c-0.24,0.178-0.519,0.229-0.849,0.158
			c-1.463-0.24-2.97-0.331-4.513-0.266c-1.501,0.065-3.28,0.21-5.363,0.419c0.202,0.858,0.24,1.666,0.125,2.422
			c-0.376,2.402-0.998,4.398-1.881,6.024c-1.607,2.956-4.182,5.333-7.709,7.131c-0.369,0.185-0.634,0.09-0.825-0.291
			c-0.198-0.344-0.122-0.624,0.216-0.827c4.849-2.969,7.683-7.079,8.502-12.343c0.1-0.634,0.159-1.283,0.177-1.931
			c-1.423,0.191-2.821,0.4-4.219,0.604c-1.702,0.248-3.114,0.381-4.231,0.438c-1.038,0.038-2.195-0.431-3.465-1.41
			c-0.337-0.247-0.389-0.539-0.134-0.877c0.221-0.285,0.489-0.343,0.802-0.158c0.883,0.482,1.945,0.697,3.177,0.642
			c1.684-0.065,4.177-0.326,7.505-0.783c3.324-0.451,5.821-0.717,7.5-0.787c1.339-0.045,2.738,0.019,4.193,0.21
			c0.104-0.038,0.223-0.063,0.357-0.063C80.776,57.05,81.105,57.348,81.13,57.983z M75.366,51.246
			c0.013,0.306-0.102,0.547-0.316,0.745c-0.244,0.19-0.504,0.266-0.821,0.208c-1.011-0.038-1.83-0.03-2.452,0.015
			c-0.692,0.069-1.843,0.247-3.451,0.527c-1.474,0.26-2.625,0.406-3.444,0.444c-1.234,0.038-2.289-0.279-3.159-0.971
			c-0.331-0.268-0.369-0.561-0.103-0.872c0.222-0.293,0.497-0.356,0.807-0.165c0.529,0.279,1.412,0.387,2.639,0.343
			c0.887-0.045,2.421-0.248,4.606-0.649c1.099-0.198,1.818-0.305,2.167-0.356c0.686-0.07,1.391-0.089,2.128-0.05
			c0.133-0.07,0.261-0.108,0.414-0.115C75.012,50.325,75.341,50.618,75.366,51.246z M80.901,49.405
			c0.108,0.113,0.166,0.266,0.181,0.438c0.024,0.604-0.257,0.916-0.841,0.94c-0.494,0.02-0.794-0.202-0.895-0.672
			c-0.622-0.795-1.575-1.665-2.879-2.613c-0.216-0.152-0.279-0.361-0.185-0.597c0.121-0.33,0.344-0.426,0.675-0.298
			C78.665,47.231,79.979,48.157,80.901,49.405z M84.397,46.945c0.108,0.178,0.166,0.349,0.178,0.541
			c0.026,0.566-0.248,0.883-0.808,0.947c-0.526,0.038-0.852-0.198-0.97-0.737c-0.654-0.77-1.705-1.658-3.148-2.657
			c-0.202-0.14-0.265-0.331-0.188-0.579c0.114-0.324,0.335-0.426,0.662-0.311C82.143,44.84,83.565,45.77,84.397,46.945z"/>
		<path class="st0" d="M114.953,55.816c0.013,0.281-0.087,0.516-0.293,0.725c-0.208,0.203-0.456,0.293-0.737,0.254
			c-1.176-0.058-3.545,0.025-7.125,0.235c-0.055,4.277-0.571,7.665-1.512,10.117c-1.061,2.696-2.871,4.864-5.445,6.444
			c-0.357,0.236-0.65,0.179-0.885-0.19c-0.204-0.338-0.138-0.617,0.19-0.845c2.041-1.449,3.522-3.35,4.431-5.714
			c0.922-2.364,1.416-5.599,1.467-9.704c-2.49,0.165-4.97,0.432-7.416,0.795c0.087,2.236,0.223,4.105,0.4,5.598
			c0.108,0.161,0.178,0.351,0.178,0.542c0.025,0.622-0.268,0.945-0.895,0.971c-0.604,0.025-0.935-0.254-0.973-0.871
			c-0.121-1.587-0.229-3.577-0.356-5.972c-1.043,0.17-2.631,0.413-4.729,0.711c-1.322,0.146-2.464-0.133-3.445-0.852
			c-0.329-0.254-0.374-0.546-0.132-0.87c0.185-0.254,0.431-0.331,0.737-0.229c0.698,0.268,1.62,0.343,2.758,0.216
			c1.577-0.178,3.152-0.369,4.753-0.597l-0.14-3.177c-0.062-1.462-0.253-2.402-0.604-2.821c-0.273-0.312-0.241-0.605,0.096-0.883
			c0.268-0.223,0.529-0.223,0.782,0c0.908,0.787,1.386,1.855,1.43,3.221l0.08,3.458c2.333-0.299,3.865-0.471,4.577-0.541
			c0.89-0.083,1.843-0.166,2.898-0.255c0-0.629-0.025-1.767-0.076-3.4c-0.017-1.042-0.051-1.697-0.115-1.97
			c-0.115-0.737-0.376-1.322-0.782-1.755c-0.241-0.228-0.279-0.483-0.102-0.781c0.254-0.331,0.539-0.382,0.873-0.153
			c0.755,0.482,1.263,1.086,1.537,1.805c0.171,0.469,0.279,1.258,0.331,2.352c0.049,1.359,0.08,2.624,0.087,3.761
			c3.267-0.273,5.479-0.388,6.63-0.374c0.14-0.115,0.316-0.178,0.508-0.185C114.583,54.863,114.921,55.169,114.953,55.816z
			 M113.294,50.236c0.115,0.14,0.166,0.28,0.177,0.446c0.028,0.609-0.253,0.922-0.832,0.953c-0.494,0.018-0.807-0.204-0.908-0.68
			c-0.622-0.795-1.575-1.665-2.866-2.6c-0.229-0.171-0.285-0.368-0.183-0.617c0.121-0.323,0.343-0.431,0.66-0.304
			C111.063,48.064,112.371,49.004,113.294,50.236z M116.796,47.796c0.108,0.165,0.171,0.349,0.171,0.546
			c0.033,0.56-0.234,0.853-0.8,0.898c-0.533,0.075-0.864-0.16-0.966-0.7c-0.666-0.775-1.715-1.658-3.164-2.657
			c-0.204-0.146-0.268-0.336-0.191-0.572c0.12-0.331,0.338-0.444,0.679-0.324C114.535,45.679,115.957,46.615,116.796,47.796z"/>
		<path class="st0" d="M141.111,47.841c0.108,0.616-0.102,1.239-0.643,1.842c-1.072,1.209-2.846,2.881-5.325,5.028
			c0.82,0.565,1.355,1.105,1.614,1.614c0.166,0.381,0.261,0.978,0.268,1.8c0.013,0.311,0.032,0.985,0.058,2.045
			c0.178,4.118,0.28,7.404,0.318,9.844c0.139,0.166,0.215,0.357,0.215,0.58c0.025,0.66-0.291,1.01-0.96,1.048
			c-0.692,0.025-1.03-0.318-1.008-1.036c-0.021-1.296-0.097-4.639-0.261-10.034c-0.038-0.783-0.063-1.399-0.083-1.856
			c-0.046-0.986-0.088-1.582-0.133-1.773c-0.135-0.426-0.465-0.903-0.998-1.417c-3.781,3.164-7.194,5.491-10.252,6.978
			c-0.376,0.183-0.654,0.095-0.82-0.286c-0.188-0.356-0.114-0.629,0.223-0.82c2.701-1.582,5.905-3.979,9.59-7.181
			c2.752-2.397,4.654-4.207,5.709-5.389c0.413-0.458,0.597-0.839,0.564-1.164c-0.012-0.215-0.133-0.424-0.381-0.616
			c-0.247-0.191-0.291-0.444-0.128-0.749c0.178-0.382,0.452-0.472,0.835-0.268C140.451,46.525,140.984,47.136,141.111,47.841z"/>
		<path class="st0" d="M161.6,52.461c-0.038,0.692-0.393,1.023-1.099,0.985c-0.469-0.018-0.787-0.254-0.935-0.704
			c-1.734-1.056-3.615-2.047-5.661-2.968c-0.357-0.141-0.472-0.382-0.364-0.738c0.149-0.413,0.395-0.559,0.789-0.413l0.827,0.248
			c1.403,0.444,2.439,0.8,3.124,1.073c1.272,0.502,2.257,1.075,2.957,1.698C161.479,51.857,161.607,52.137,161.6,52.461z
			 M174.151,53.262c-1.823,2.574-4.665,5.503-8.522,8.828c-2.871,2.502-5.045,4.194-6.532,5.102
			c-0.356,0.229-0.749,0.357-1.176,0.369c-0.908,0.038-1.925-0.414-3.044-1.361c-0.337-0.266-0.369-0.559-0.095-0.877
			c0.235-0.286,0.522-0.329,0.825-0.133c0.546,0.361,1.074,0.539,1.622,0.522c0.368-0.02,0.712-0.115,1.053-0.299
			c1.227-0.68,3.28-2.212,6.167-4.576c3.653-3.006,6.557-5.784,8.732-8.345c0.24-0.285,0.514-0.323,0.832-0.108
			C174.342,52.639,174.387,52.931,174.151,53.262z"/>
		<path class="st0" d="M192.277,47.968c0.032,0.82-0.374,1.246-1.213,1.284l-3.273,0.14l0.055,1.125
			c0.123-0.038,0.257-0.063,0.389-0.038c1.044,0.311,1.931,0.75,2.662,1.291c0.72,0.546,1.096,1.125,1.114,1.722
			c0.051,0.82-0.324,1.233-1.099,1.279c-0.356,0.012-0.647-0.096-0.883-0.351c-0.229-0.248-0.338-0.547-0.306-0.897
			c-0.443-0.68-1.055-1.372-1.842-2.059l0.736,17.471c0.02,0.306-0.088,0.572-0.297,0.788c-0.206,0.216-0.452,0.349-0.758,0.356
			c-0.299,0.012-0.564-0.083-0.769-0.286c-0.216-0.204-0.337-0.464-0.349-0.77l-0.546-13.168c-1.214,2.751-2.658,4.983-4.335,6.7
			c-0.134,0.151-0.291,0.24-0.472,0.24c-0.316,0.013-0.488-0.146-0.501-0.496c-0.013-0.082,0.013-0.17,0.052-0.26
			c2.39-4.333,4.047-8.522,4.989-12.564l-4.348,0.19c-0.45,0.019-0.686-0.21-0.706-0.66c-0.012-0.451,0.204-0.68,0.657-0.705
			l4.307-0.179l-0.279-6.475c-0.006-0.305,0.088-0.559,0.293-0.795c0.203-0.216,0.463-0.336,0.769-0.349
			c0.299-0.02,0.567,0.09,0.794,0.291c0.219,0.211,0.338,0.452,0.357,0.77l0.255,6.464l2.14-0.09
			c0.059-0.712,0.445-1.086,1.159-1.119c0.344-0.012,0.642,0.096,0.87,0.319C192.139,47.37,192.264,47.643,192.277,47.968z
			 M210.829,59.02c0.011,0.343-0.096,0.654-0.331,0.922c-0.236,0.281-0.546,0.407-0.915,0.426l-8.149,0.351l0.338,7.955
			c0.013,0.299-0.088,0.572-0.298,0.807c-0.204,0.237-0.472,0.357-0.795,0.382c-0.318,0.013-0.598-0.09-0.832-0.318
			c-0.242-0.21-0.369-0.464-0.376-0.782l-0.337-7.956l-7.575,0.323c-0.45,0.013-0.686-0.196-0.711-0.647
			c-0.013-0.451,0.202-0.694,0.661-0.712l7.57-0.318l-0.153-3.668c-0.006-0.291,0.094-0.558,0.306-0.8
			c0.215-0.241,0.488-0.362,0.811-0.374c0.306-0.013,0.58,0.088,0.803,0.305c0.24,0.221,0.369,0.477,0.386,0.782l0.14,3.654
			l6.901-0.279c-0.011-0.356,0.09-0.649,0.331-0.896c0.249-0.248,0.535-0.376,0.877-0.394c0.368-0.013,0.674,0.102,0.941,0.33
			C210.676,58.352,210.816,58.658,210.829,59.02z M211.167,52.983c0.011,0.361-0.115,0.68-0.357,0.947
			c-0.254,0.268-0.554,0.419-0.927,0.433l-4.201,0.178c-1.099,0.045-1.881-0.134-2.32-0.534c-0.456-0.407-0.699-1.138-0.744-2.161
			l-0.216-5.32l-3.146,0.14c-0.838,5.115-3.036,8.681-6.559,10.683c-0.146,0.07-0.286,0.122-0.419,0.122
			c-0.316,0.013-0.482-0.153-0.496-0.471c-0.012-0.165,0.065-0.311,0.204-0.431c2.605-2.332,4.257-5.606,4.936-9.801l-3.099,0.133
			c-0.439,0.013-0.66-0.197-0.675-0.616c-0.017-0.459,0.185-0.694,0.617-0.712l3.37-0.146c0.108-1.049,0.132-2.339,0.093-3.896
			c-0.013-0.444,0.102-0.82,0.356-1.099c0.261-0.281,0.565-0.433,0.935-0.451c0.456-0.013,0.838,0.178,1.138,0.578
			c0.128,0.203,0.202,0.445,0.216,0.707c0.02,0.368-0.088,0.672-0.311,0.945c0.032,0.973-0.007,2.016-0.134,3.121l3.109-0.127
			c0.19-0.355,0.502-0.539,0.915-0.559c0.749-0.033,1.144,0.311,1.181,1.023l0.256,6.178c0,0.235,0.049,0.381,0.102,0.431
			c0.049,0.052,0.208,0.076,0.476,0.07l2.943-0.132l-0.058-1.419c-0.012-0.349,0.146-0.527,0.497-0.541
			c0.341-0.019,0.521,0.146,0.532,0.504l0.045,0.998c0.102-0.026,0.223-0.038,0.351-0.058c0.348-0.013,0.666,0.113,0.947,0.356
			C210.999,52.302,211.139,52.613,211.167,52.983z"/>
		<path class="st0" d="M223.431,65.693c0.032,0.712-0.299,1.08-0.991,1.105c-0.692,0.038-1.056-0.298-1.081-0.991
			c0-0.14,0.013-0.278,0.052-0.387c-0.858-1.988-2.244-3.425-4.138-4.302c-0.331-0.133-0.431-0.387-0.325-0.73
			c0.14-0.42,0.407-0.56,0.794-0.42c1.234,0.394,2.424,1.126,3.599,2.174C222.688,63.366,223.393,64.542,223.431,65.693z"/>
		<path class="st0" d="M248.579,42.362c0.236,0.255,0.355,0.534,0.376,0.865c0.011,0.338-0.108,0.642-0.344,0.883
			c-0.236,0.242-0.515,0.381-0.839,0.394c-0.738,0.025-1.176-0.318-1.309-1.023c-1.063-1.023-2.016-1.888-2.866-2.56
			c-1.419,3.317-3.701,6.538-6.828,9.66c-0.101,0.088-0.215,0.127-0.348,0.132c-0.362,0.026-0.553-0.145-0.567-0.488
			c-0.011-0.108,0.028-0.223,0.115-0.331c2.378-3.508,4.386-7.143,6.018-10.887c0.191-0.597,0.605-0.902,1.227-0.922
			c0.571-0.025,0.973,0.204,1.233,0.692c0.274,0.529,0.236,1.03-0.133,1.487C246.304,40.692,247.726,41.384,248.579,42.362z
			 M249.741,63.03c0.091,0.413,0.032,0.782-0.146,1.086c-0.17,0.324-0.482,0.509-0.883,0.541c-0.386,0.065-0.717-0.026-0.985-0.28
			c-0.272-0.248-0.413-0.554-0.425-0.922c-0.006-0.102,0-0.21,0.012-0.324c-0.095-0.248-0.228-0.554-0.418-0.883
			c-2.345,1.455-4.697,2.72-7.079,3.794c-0.236,0.762-0.771,1.073-1.578,0.94c-0.717-0.12-1.093-0.571-1.131-1.354
			c-0.018-0.66,0.261-1.098,0.858-1.289l1.462-0.554l-0.602-14.394c-0.028-0.724,0.323-1.093,1.061-1.125
			c0.411-0.013,0.717,0.165,0.922,0.546l1.785-0.075l-0.09-2.264c-0.032-0.704,0.298-1.08,0.986-1.099
			c0.711-0.045,1.093,0.305,1.118,1.011l0.062,2.262l1.68-0.077c0.178-0.361,0.477-0.559,0.883-0.579
			c0.717-0.025,1.08,0.306,1.118,0.998l0.351,8.479c0.032,0.693-0.312,1.048-1.023,1.081c-0.529,0.017-0.852-0.217-1.011-0.713
			l-5.333,0.236l0.211,4.939l4.854-1.717c-0.28-0.534-0.519-0.946-0.704-1.239c-0.041-0.063-0.072-0.133-0.072-0.223
			c-0.011-0.318,0.146-0.496,0.504-0.502c0.088-0.006,0.171,0.006,0.254,0.045C248.3,60.373,249.424,61.599,249.741,63.03z
			 M246.392,52.474l-0.12-2.618l-5.27,0.216l0.102,2.631L246.392,52.474z M246.552,56.554l-0.121-2.778l-5.268,0.216l0.121,2.776
			L246.552,56.554z M264.385,42.573c0.012,0.323-0.096,0.609-0.319,0.857c-0.233,0.248-0.501,0.381-0.832,0.394l-5.524,0.198
			l0.198,4.791l3.465-0.152c0.188-0.369,0.494-0.572,0.908-0.585c0.737-0.025,1.117,0.331,1.151,1.061l0.533,12.685
			c0.038,0.985-0.386,1.5-1.27,1.544c-0.382,0.013-0.726-0.102-0.991-0.368c-0.268-0.254-0.407-0.579-0.421-0.941
			c-0.018-0.171,0.025-0.343,0.102-0.521l-0.808,0.038c-0.341,0.013-0.521-0.153-0.539-0.509c-0.02-0.336,0.153-0.514,0.491-0.527
			l1.169-0.057l-0.446-10.544l-3.298,0.141l0.679,16.116c0.015,0.281-0.087,0.522-0.291,0.757c-0.21,0.229-0.464,0.343-0.769,0.356
			c-0.279,0.006-0.529-0.088-0.749-0.291c-0.236-0.211-0.344-0.452-0.351-0.732l-0.679-16.117l-2.989,0.126l0.502,12.005
			c0.038,0.713-0.299,1.081-0.991,1.106c-0.692,0.038-1.036-0.305-1.075-1.023l-0.526-12.584c-0.025-0.717,0.298-1.086,0.985-1.118
			c0.323-0.019,0.604,0.108,0.839,0.356l3.189-0.133l-0.195-4.779l-3.401,0.127c-0.744,1.226-1.43,2.217-2.053,2.974
			c-0.102,0.133-0.216,0.21-0.369,0.216c-0.368,0.013-0.552-0.16-0.571-0.496c0-0.09,0.018-0.178,0.088-0.266
			c1.272-2.517,2.382-5.104,3.332-7.755c0.188-0.596,0.602-0.908,1.231-0.927c0.362-0.013,0.681,0.102,0.961,0.361
			c0.291,0.255,0.438,0.566,0.456,0.935c0.026,0.827-0.356,1.297-1.15,1.411c-0.33,0.705-0.712,1.449-1.138,2.224l9.062-0.381
			c0.057-0.718,0.446-1.093,1.151-1.125c0.324-0.013,0.609,0.095,0.857,0.324C264.239,41.981,264.372,42.255,264.385,42.573z"/>
		<path class="st0" d="M289.181,49.315c0.129,3.191-0.164,5.917-0.887,8.179c-0.991,3.197-2.88,5.872-5.662,8.02
			c-0.337,0.268-0.637,0.236-0.878-0.1c-0.243-0.311-0.211-0.592,0.05-0.845c3.979-3.686,5.83-8.631,5.58-14.859
			c-0.119-2.739-0.406-4.913-0.856-6.539c-0.382-1.367-0.783-2.041-1.183-2.029c-0.547,0.033-1.284,0.757-2.219,2.2
			c-0.624,0.959-1.183,1.945-1.66,2.956c-0.641,1.352-1.161,2.851-1.562,4.505c-0.386,1.557-0.584,2.866-0.584,3.959
			c-0.006,0.788-0.293,1.272-0.845,1.424c-0.344,0.102-0.61,0.018-0.815-0.255c-0.501-0.616-0.775-1.602-0.807-2.986
			c-0.045-0.833,0-2.981,0.114-6.432c0.07-2.021,0.09-3.285,0.077-3.793c-0.063-1.336-0.316-2.264-0.737-2.778
			c-0.248-0.293-0.241-0.584,0.025-0.858c0.312-0.291,0.622-0.291,0.91,0c0.972,0.998,1.479,2.345,1.531,4.061
			c-0.013,0.363-0.062,1.347-0.204,2.918c-0.233,2.638-0.354,4.582-0.361,5.859c0.865-2.898,1.901-5.503,3.102-7.817
			c1.499-2.898,2.822-4.365,3.966-4.417C287.605,39.585,288.903,42.796,289.181,49.315z"/>
		<path class="st0" d="M319.305,50.872c0.028,0.782-0.368,1.176-1.183,1.227l-16.051,0.66c-0.459,0.032-0.695-0.196-0.712-0.649
			c-0.021-0.431,0.195-0.654,0.654-0.68l7.308-0.299l-0.121-2.979l-5.813,0.254c-0.459,0.012-0.7-0.196-0.72-0.622
			c-0.025-0.459,0.198-0.693,0.654-0.712l5.83-0.243l-0.096-2.211c-0.032-0.694,0.305-1.049,0.991-1.075
			c0.705-0.025,1.074,0.293,1.106,0.985l0.096,2.212l3.976-0.171c0.104-0.61,0.459-0.929,1.061-0.953
			c0.331-0.015,0.605,0.082,0.821,0.291c0.236,0.204,0.355,0.471,0.361,0.788c0.013,0.305-0.087,0.572-0.299,0.788
			c-0.215,0.241-0.481,0.356-0.779,0.368l-5.086,0.211l0.097,2.979l5.528-0.235c0.063-0.692,0.431-1.049,1.125-1.088
			c0.319-0.012,0.61,0.09,0.852,0.312C319.153,50.25,319.295,50.523,319.305,50.872z M319.027,59.673
			c-4.87,1.558-9.477,2.836-13.848,3.821c-0.325,0.471-0.72,0.712-1.169,0.724c-0.351,0.02-0.661-0.102-0.922-0.368
			c-0.281-0.249-0.414-0.56-0.427-0.896c-0.038-0.775,0.306-1.239,1.043-1.374l6.006-1.162l-0.134-3.273l-6.634,0.279
			c-0.459,0.025-0.686-0.196-0.705-0.655c-0.015-0.451,0.198-0.692,0.641-0.704l6.635-0.281l-0.076-1.994
			c-0.03-0.712,0.306-1.086,0.999-1.125c0.699-0.026,1.075,0.323,1.106,1.036l0.08,1.995l4.074-0.165
			c0.09-0.617,0.44-0.93,1.068-0.947c0.306-0.02,0.566,0.088,0.802,0.285c0.235,0.21,0.374,0.471,0.387,0.795
			c0.025,0.757-0.356,1.156-1.151,1.181l-5.115,0.211l0.12,2.948l6.946-1.361c0.4-0.082,0.622,0.091,0.643,0.529
			C319.403,59.407,319.267,59.567,319.027,59.673z M326.239,42.408c0.013,0.305-0.077,0.571-0.285,0.792
			c-0.21,0.229-0.471,0.344-0.762,0.357c-0.655,0.032-1.038-0.281-1.151-0.922l-17.985,0.744c-0.16,0.534-0.494,0.8-1.012,0.832
			c-0.709,0.026-1.085-0.336-1.117-1.093l-0.229-5.567c-0.038-0.749,0.313-1.144,1.023-1.176c0.323-0.012,0.591,0.108,0.827,0.357
			l18.507-0.783c0.208-0.266,0.482-0.399,0.825-0.419c0.712-0.032,1.088,0.331,1.119,1.088L326.239,42.408z M310.466,41.974
			l-0.177-4.212l-4.405,0.197l0.178,4.207L310.466,41.974z M317.131,41.69l-0.17-4.208l-4.696,0.204l0.17,4.207L317.131,41.69z
			 M323.995,41.402l-0.177-4.207l-4.854,0.203l0.178,4.201L323.995,41.402z M329.946,54.159c0.07,0.208,0.112,0.426,0.119,0.641
			c0.038,0.84-0.386,1.277-1.27,1.316c-0.65,0.026-1.074-0.279-1.27-0.947c-0.776-0.922-2.105-1.97-3.968-3.146l0.484,11.381
			c0.013,0.318-0.088,0.579-0.293,0.802c-0.21,0.221-0.456,0.343-0.762,0.348c-0.299,0.014-0.56-0.082-0.769-0.285
			c-0.223-0.21-0.331-0.457-0.344-0.769l-0.781-18.602c-0.006-0.305,0.08-0.566,0.272-0.795c0.198-0.223,0.446-0.338,0.751-0.355
			c0.303-0.015,0.564,0.088,0.794,0.298c0.223,0.203,0.337,0.457,0.35,0.763l0.253,5.91c1.653,0.374,3.069,0.869,4.232,1.518
			C328.865,52.836,329.589,53.478,329.946,54.159z"/>
		<path class="st0" d="M361.289,43.766c0.013,0.338-0.108,0.643-0.344,0.878c-0.234,0.254-0.526,0.387-0.877,0.401l-12.258,0.521
			c0.215,0.221,0.336,0.496,0.351,0.82c0.038,0.819-0.351,1.276-1.172,1.379c-0.741,0.73-1.384,1.316-1.906,1.767
			c-0.042,0.052-0.087,0.075-0.15,0.102c0.755,0.534,1.142,1.061,1.169,1.608c0.011,0.324-0.097,0.604-0.327,0.858
			c-0.22,0.247-0.501,0.374-0.817,0.393c-0.762,0.033-1.183-0.343-1.253-1.093c-0.717-0.617-1.711-1.379-2.987-2.3
			c-0.127-0.102-0.197-0.228-0.21-0.381c-0.013-0.451,0.191-0.635,0.63-0.541c1.148,0.21,2.185,0.547,3.096,1.036
			c-0.006-0.088,0-0.178,0.011-0.268c0.394-0.94,0.89-2.046,1.495-3.297l-11.827,0.496c-0.446,0.019-0.682-0.204-0.706-0.655
			c-0.014-0.451,0.202-0.693,0.661-0.705l12.266-0.521l-0.102-2.588l-8.327,0.351c-0.45,0.013-0.686-0.198-0.71-0.647
			c-0.013-0.452,0.202-0.687,0.654-0.713l8.317-0.343l-0.1-2.307l-11.16,0.477c-0.459,0.019-0.699-0.203-0.72-0.66
			c-0.011-0.445,0.204-0.68,0.662-0.707l11.155-0.469l-0.083-2.066c-0.013-0.299,0.083-0.566,0.291-0.8
			c0.206-0.236,0.471-0.369,0.802-0.381c0.319-0.015,0.597,0.088,0.833,0.305c0.241,0.221,0.369,0.476,0.373,0.781l0.09,2.073
			l8.999-0.383c0.025-0.73,0.426-1.118,1.176-1.143c0.324-0.013,0.616,0.09,0.864,0.324c0.236,0.216,0.376,0.502,0.389,0.852
			c0.013,0.343-0.09,0.642-0.316,0.89c-0.23,0.241-0.504,0.374-0.859,0.388L348.16,37.92l0.1,2.301l5.925-0.248
			c0.08-0.667,0.443-1.018,1.085-1.049c0.331-0.018,0.605,0.083,0.853,0.311c0.228,0.211,0.355,0.484,0.368,0.808
			c0.012,0.336-0.09,0.629-0.33,0.87c-0.216,0.228-0.509,0.369-0.846,0.381l-6.991,0.293l0.102,2.587l10.418-0.439
			c0.045-0.737,0.424-1.118,1.161-1.149c0.337-0.012,0.63,0.09,0.885,0.319C361.136,43.138,361.27,43.418,361.289,43.766z
			 M343.959,58.224c0.013,0.376-0.115,0.694-0.356,0.973c-0.268,0.293-0.58,0.432-0.948,0.426c-0.666,0.508-1.817,1.264-3.438,2.287
			c-1.919,1.194-3.064,1.811-3.425,1.825c-0.349,0.012-0.526-0.166-0.541-0.534c-0.013-0.171,0.063-0.305,0.21-0.426
			c1.989-1.532,4.049-3.324,6.165-5.383c0.268-0.266,0.591-0.406,0.948-0.432C343.463,56.929,343.921,57.348,343.959,58.224z
			 M360.284,54.723c0.033,0.763-0.324,1.221-1.041,1.385c-0.368,0.052-0.699-0.012-0.998-0.203
			c-0.299-0.191-0.489-0.464-0.571-0.813c-0.542-0.527-1.189-1.086-1.951-1.659c-0.09,0.045-0.178,0.083-0.261,0.102
			c-2.161,0.482-4.41,0.928-6.743,1.328l0.291,7.081c0.014,0.329-0.087,0.604-0.303,0.825c-0.223,0.229-0.484,0.343-0.782,0.363
			c-0.324,0.012-0.602-0.088-0.838-0.293c-0.236-0.21-0.351-0.469-0.363-0.8l-0.299-6.793c-2.998,0.469-5.827,0.852-8.477,1.131
			c-0.261,0.343-0.599,0.521-1.019,0.534c-0.361,0.012-0.699-0.103-0.995-0.363c-0.312-0.261-0.465-0.585-0.49-0.966
			c-0.013-0.369,0.114-0.705,0.376-0.991c0.265-0.286,0.578-0.457,0.965-0.495c3.814-0.203,6.935-0.381,9.35-0.559
			c2.028-2.136,3.941-4.322,5.749-6.59c0.251-0.305,0.573-0.477,0.985-0.489c0.911-0.045,1.38,0.4,1.412,1.329
			c0.021,0.411-0.1,0.749-0.374,1.022c-0.273,0.274-0.61,0.407-1.016,0.407c-1.227,1.131-2.881,2.517-4.95,4.157
			c2.286-0.236,4.498-0.477,6.647-0.769c-0.508-0.326-0.89-0.567-1.126-0.732c-0.184-0.102-0.279-0.228-0.279-0.407
			c-0.02-0.457,0.191-0.629,0.624-0.546c1.367,0.268,2.623,0.66,3.774,1.206C359.344,52.912,360.241,53.783,360.284,54.723z
			 M359.873,60.425c0.017,0.368-0.102,0.686-0.351,0.959c-0.248,0.261-0.554,0.407-0.915,0.419
			c-0.692,0.033-1.144-0.298-1.335-0.985c-1.041-0.877-2.693-1.9-4.962-3.024c-0.177-0.083-0.274-0.223-0.281-0.446
			c-0.011-0.413,0.178-0.59,0.592-0.541c1.474,0.191,2.879,0.529,4.195,1.018C358.815,58.544,359.828,59.407,359.873,60.425z"/>
		<path class="st0" d="M379.085,39.942c0.011,0.318-0.097,0.604-0.327,0.85c-0.22,0.249-0.494,0.382-0.817,0.396l-4.178,0.165
			l0.104,2.598c0.108-0.07,0.233-0.088,0.393-0.05c1.093,0.299,2.129,0.73,3.096,1.297c1.333,0.787,2.014,1.595,2.053,2.44
			c0.019,0.349-0.09,0.654-0.299,0.922c-0.221,0.266-0.521,0.419-0.915,0.431c-0.368-0.012-0.68-0.133-0.934-0.381
			c-0.261-0.254-0.376-0.546-0.348-0.895c-0.821-0.96-1.826-1.895-2.999-2.804l0.66,15.863c0.032,0.718-0.319,1.094-1.062,1.119
			c-0.279,0.013-0.52-0.09-0.742-0.279c-0.223-0.191-0.351-0.438-0.357-0.75l-0.578-13.753c-1.392,3.395-3.191,6.235-5.383,8.53
			c-0.103,0.113-0.217,0.171-0.357,0.177c-0.368,0.02-0.558-0.146-0.564-0.501c-0.006-0.103,0.025-0.216,0.083-0.324
			c1.239-1.97,2.401-4.245,3.475-6.825c1.061-2.486,1.823-4.722,2.276-6.712l-5.148,0.221c-0.444,0.015-0.686-0.196-0.705-0.647
			c-0.012-0.457,0.204-0.693,0.654-0.712l5.371-0.235l-0.273-6.368c-0.007-0.299,0.088-0.56,0.299-0.782
			c0.203-0.203,0.456-0.318,0.736-0.331c0.299-0.006,0.552,0.09,0.795,0.279c0.216,0.191,0.331,0.439,0.349,0.744l0.268,6.374
			l2.974-0.126c0.038-0.713,0.424-1.08,1.151-1.113c0.337-0.012,0.616,0.095,0.855,0.311
			C378.939,39.306,379.071,39.585,379.085,39.942z M394.749,39.343c0.025,0.801-0.368,1.214-1.206,1.252l-4.558,0.191l0.777,18.742
			c0.045,0.985-0.394,1.506-1.329,1.537c-0.407,0.02-0.755-0.102-1.041-0.368c-0.274-0.273-0.427-0.585-0.44-0.96
			c-0.01-0.235,0.038-0.464,0.166-0.68l-1.061,0.038c-0.355,0.013-0.534-0.153-0.546-0.496c-0.02-0.338,0.146-0.521,0.494-0.534
			l1.52-0.07l-0.522-12.265c-2.167,4.829-5.027,8.489-8.567,11c-0.12,0.063-0.23,0.102-0.331,0.102
			c-0.341,0.012-0.519-0.134-0.532-0.457c-0.007-0.153,0.038-0.293,0.133-0.401c1.83-2.046,3.52-4.436,5.117-7.2
			c1.569-2.759,2.776-5.384,3.596-7.881l-4.533,0.196c-0.456,0.013-0.692-0.208-0.704-0.66c-0.013-0.451,0.203-0.686,0.641-0.712
			l4.933-0.203l-0.274-6.476c-0.019-0.299,0.09-0.566,0.291-0.783c0.206-0.235,0.459-0.349,0.762-0.355
			c0.299-0.018,0.567,0.075,0.771,0.278c0.216,0.211,0.331,0.472,0.335,0.771l0.282,6.474l3.424-0.153
			c0.065-0.704,0.444-1.086,1.151-1.111c0.323-0.013,0.616,0.096,0.865,0.318C394.597,38.709,394.736,38.994,394.749,39.343z"/>
		<path class="st0" d="M426.801,51.228c0.011,0.361-0.104,0.68-0.351,0.941c-0.254,0.253-0.56,0.394-0.929,0.406l-6.272,0.266
			l0.246,6.146c0.028,0.439-0.08,0.8-0.335,1.093c-0.256,0.318-0.587,0.471-1.011,0.491c-0.421,0.012-0.762-0.115-1.048-0.388
			c-0.281-0.261-0.434-0.579-0.444-0.941c-0.006-0.223,0.042-0.426,0.139-0.629l-1.384,0.057c-0.357,0.018-0.535-0.146-0.548-0.489
			c-0.012-0.349,0.16-0.529,0.504-0.541l1.715-0.07l-0.198-4.633l-17.926,0.757c-0.484,0.018-0.72-0.204-0.745-0.655
			c-0.02-0.476,0.196-0.725,0.686-0.737l17.922-0.75l-0.076-1.728c-0.007-0.318,0.097-0.599,0.312-0.833
			c0.223-0.241,0.484-0.356,0.815-0.368c0.316-0.013,0.609,0.088,0.845,0.298c0.253,0.216,0.386,0.489,0.405,0.808l0.071,1.722
			l5.02-0.21c0.025-0.802,0.438-1.221,1.231-1.253c0.359-0.013,0.662,0.102,0.93,0.356
			C426.641,50.586,426.786,50.885,426.801,51.228z M424.815,34.031c0.013,0.349-0.088,0.642-0.324,0.895
			c-0.227,0.243-0.514,0.369-0.856,0.381l-10.296,0.439l0.094,2.352l6.776-0.281c0.191-0.393,0.514-0.604,0.935-0.616
			c0.78-0.032,1.188,0.338,1.226,1.111l0.382,9.26c0.03,0.757-0.338,1.151-1.121,1.176c-0.641,0.038-1.03-0.28-1.13-0.922
			l-15.119,0.629l0.004,0.268c0.015,0.293-0.087,0.566-0.296,0.8c-0.218,0.242-0.496,0.362-0.82,0.376
			c-0.325,0.012-0.591-0.09-0.827-0.306c-0.216-0.216-0.336-0.469-0.356-0.782l-0.4-9.666c-0.032-0.78,0.336-1.188,1.081-1.226
			c0.456-0.012,0.794,0.165,1.034,0.546l6.344-0.266l-0.108-2.365l-10.671,0.459c-0.452,0.013-0.692-0.21-0.71-0.655
			c-0.02-0.451,0.195-0.687,0.654-0.712l10.638-0.444l-0.09-2.302c-0.032-0.792,0.337-1.219,1.113-1.244
			c0.807-0.058,1.214,0.33,1.246,1.144l0.103,2.301l9.063-0.382c0.032-0.73,0.411-1.111,1.148-1.156
			c0.338-0.013,0.637,0.109,0.883,0.344C424.665,33.421,424.797,33.706,424.815,34.031z M411.325,42.496l-0.128-3.001l-6.175,0.261
			l0.112,3.006L411.325,42.496z M411.516,46.906l-0.141-3.102l-6.177,0.256l0.127,3.106L411.516,46.906z M410.974,57.303
			c0.032,0.821-0.337,1.302-1.11,1.444c-0.435,0.057-0.815-0.045-1.138-0.311c-0.319-0.261-0.49-0.604-0.504-1.018
			c-0.007-0.102,0.007-0.216,0.02-0.318c-0.59-0.991-1.176-1.868-1.766-2.625c-0.077-0.075-0.102-0.171-0.108-0.285
			c-0.013-0.363,0.153-0.554,0.494-0.572c0.599-0.02,1.437,0.438,2.48,1.359C410.403,55.905,410.949,56.687,410.974,57.303z
			 M420.222,42.127l-0.122-2.999l-6.602,0.268l0.119,3.012L420.222,42.127z M420.411,46.525l-0.132-3.096l-6.603,0.281l0.125,3.101
			L420.411,46.525z"/>
		<path class="st0" d="M442.941,42.666c0.018,0.306-0.07,0.572-0.278,0.777c-0.191,0.215-0.446,0.33-0.745,0.338
			c-0.299,0.012-0.559-0.07-0.775-0.274c-0.21-0.203-0.318-0.444-0.337-0.744l-0.006-0.127l-6.018,0.248l0.643,15.379
			c0.01,0.293-0.083,0.554-0.287,0.788c-0.203,0.223-0.477,0.337-0.808,0.356c-0.291,0.02-0.55-0.083-0.779-0.298
			c-0.223-0.204-0.351-0.451-0.357-0.757l-1.068-25.472c-0.025-0.757,0.326-1.15,1.081-1.181c0.413-0.02,0.73,0.158,0.966,0.546
			l6.404-0.268c0.211-0.266,0.477-0.413,0.835-0.424c0.703-0.026,1.072,0.305,1.106,1.01L442.941,42.666z M440.545,36.586
			l-0.132-3.343l-6.018,0.254l0.125,3.336L440.545,36.586z M440.749,41.37l-0.145-3.533l-6.021,0.261l0.149,3.521L440.749,41.37z
			 M457.336,56.599c0.057,1.118-0.463,1.695-1.506,1.74c-0.438,0.026-0.794-0.115-1.093-0.387c-0.285-0.28-0.452-0.629-0.465-1.03
			c-0.011-0.266,0.059-0.514,0.191-0.769l-1.486,0.077c-0.337,0.012-0.522-0.165-0.535-0.502c-0.017-0.343,0.153-0.527,0.49-0.547
			l2.109-0.088l-0.547-13.028l-6.175,0.248v0.133c0.011,0.306-0.09,0.552-0.293,0.782c-0.211,0.21-0.465,0.318-0.769,0.331
			c-0.287,0.012-0.535-0.076-0.758-0.281c-0.215-0.19-0.336-0.438-0.348-0.737l-0.434-10.104c-0.025-0.706,0.326-1.081,1.061-1.113
			c0.326-0.012,0.597,0.114,0.827,0.349l6.634-0.273c0.223-0.331,0.522-0.508,0.885-0.527c0.75-0.026,1.151,0.331,1.183,1.088
			L457.336,56.599z M454.236,36.007l-0.141-3.343l-6.177,0.268l0.14,3.329L454.236,36.007z M454.431,40.792l-0.146-3.52
			l-6.177,0.254l0.145,3.527L454.431,40.792z"/>
		<path class="st0" d="M490.695,39.338c0.012,0.278-0.083,0.527-0.281,0.724c-0.195,0.198-0.431,0.306-0.717,0.287
			c-1.163-0.051-3.548,0.019-7.125,0.208c-0.063,4.297-0.559,7.677-1.52,10.112c-1.072,2.726-2.877,4.881-5.433,6.482
			c-0.362,0.21-0.654,0.151-0.89-0.191c-0.21-0.33-0.133-0.616,0.191-0.845c2.041-1.475,3.508-3.374,4.435-5.726
			c0.918-2.359,1.405-5.587,1.47-9.698c-2.504,0.171-4.97,0.438-7.423,0.794c0.094,2.231,0.222,4.093,0.4,5.599
			c0.115,0.146,0.178,0.331,0.184,0.539c0.019,0.61-0.274,0.923-0.896,0.948c-0.617,0.032-0.94-0.248-0.978-0.833
			c-0.121-1.62-0.236-3.615-0.357-6.017c-1.048,0.191-2.624,0.45-4.728,0.749c-1.335,0.146-2.485-0.153-3.445-0.863
			c-0.329-0.236-0.382-0.534-0.128-0.865c0.179-0.273,0.427-0.343,0.73-0.228c0.707,0.278,1.61,0.343,2.734,0.203
			c1.595-0.191,3.182-0.382,4.772-0.585l-0.126-3.171c-0.069-1.469-0.266-2.402-0.604-2.828c-0.279-0.312-0.254-0.604,0.09-0.877
			c0.248-0.229,0.514-0.229,0.781,0c0.91,0.755,1.387,1.823,1.425,3.184l0.087,3.502c2.339-0.293,3.872-0.484,4.577-0.554
			c0.857-0.082,1.823-0.158,2.904-0.248c-0.007-0.629-0.033-1.773-0.083-3.437c-0.038-1.018-0.083-1.666-0.108-1.939
			c-0.115-0.724-0.382-1.316-0.788-1.753c-0.248-0.249-0.279-0.502-0.102-0.769c0.248-0.364,0.532-0.426,0.87-0.204
			c0.752,0.515,1.272,1.131,1.544,1.856c0.146,0.469,0.244,1.251,0.299,2.352c0.045,1.353,0.076,2.605,0.114,3.748
			c3.28-0.26,5.486-0.386,6.634-0.374c0.14-0.108,0.312-0.171,0.509-0.177C490.338,38.41,490.664,38.715,490.695,39.338z"/>
		<path class="st0" d="M516.555,32.099c0.108,0.616-0.103,1.234-0.643,1.836c-1.075,1.208-2.845,2.886-5.325,5.02
			c0.827,0.572,1.367,1.113,1.614,1.615c0.173,0.381,0.261,0.991,0.268,1.811c0.018,0.293,0.045,0.98,0.063,2.039
			c0.178,4.119,0.281,7.404,0.319,9.844c0.133,0.166,0.21,0.356,0.21,0.579c0.024,0.66-0.286,1.016-0.961,1.036
			c-0.686,0.038-1.022-0.311-1.009-1.018c-0.013-1.302-0.097-4.651-0.261-10.052c-0.034-0.763-0.058-1.381-0.083-1.838
			c-0.038-0.991-0.083-1.589-0.128-1.778c-0.133-0.434-0.471-0.896-1.003-1.417c-3.781,3.164-7.194,5.491-10.245,6.978
			c-0.387,0.19-0.66,0.095-0.826-0.288c-0.178-0.361-0.115-0.629,0.229-0.819c2.695-1.589,5.897-3.974,9.583-7.182
			c2.751-2.409,4.666-4.207,5.712-5.395c0.414-0.446,0.599-0.833,0.567-1.15c-0.02-0.223-0.14-0.434-0.389-0.623
			c-0.241-0.198-0.293-0.444-0.127-0.757c0.178-0.374,0.459-0.464,0.839-0.253C515.901,30.777,516.44,31.388,516.555,32.099z"/>
		<path class="st0" d="M544.333,42.763c0.026,0.655-0.28,0.986-0.927,1.01c-0.312,0.015-0.573-0.107-0.796-0.355
			c-0.932-0.998-2.178-1.964-3.756-2.892c-1.409-0.807-2.717-1.379-3.927-1.748c-0.087-0.038-0.157-0.088-0.234-0.145
			c0.223,4.652,0.368,9.457,0.438,14.4c0.146,0.173,0.203,0.356,0.229,0.547c0.025,0.647-0.287,0.985-0.935,1.017
			c-0.647,0.02-0.985-0.324-0.985-1.03c-0.025-5.275-0.216-11.268-0.56-17.979c-0.062-1.011-0.069-2.066-0.007-3.165
			c0.021-0.501,0.038-0.832,0.021-0.985c-0.025-0.845-0.248-1.43-0.65-1.78c-0.318-0.299-0.335-0.584-0.043-0.877
			c0.228-0.274,0.496-0.325,0.812-0.14c1.177,0.775,1.781,1.557,1.811,2.327c0.014,0.405-0.031,1.042-0.146,1.892
			c-0.119,0.84-0.164,1.494-0.152,1.939l0.128,2.917c0.17-0.153,0.361-0.223,0.571-0.178c1.266,0.223,2.594,0.66,3.985,1.322
			c1.779,0.812,3.242,1.804,4.373,2.993C544.068,41.963,544.314,42.267,544.333,42.763z"/>
		<polygon class="st2" points="25.413,12.55 26.082,12.525 29.24,88.018 28.585,88.043 25.413,12.55 		"/>
		<polygon class="st0" points="4.848,32.893 58.773,30.631 58.798,31.285 4.873,33.554 4.848,32.893 		"/>
		<polygon class="st0" points="528.815,154.198 582.74,151.935 582.765,152.589 528.84,154.858 528.815,154.198 		"/>
		<polygon class="st0" points="567.218,97.856 567.892,97.831 571.051,173.319 570.397,173.351 567.218,97.856 		"/>
		<path class="st3" d="M7.874,135.003v-31.294h25.231v29.266v2.028H7.874L7.874,135.003z M31.09,132.976v-2.021V132.976
			L31.09,132.976z M11.916,130.954h17.153v-23.203H11.916V130.954L11.916,130.954z"/>
		<path class="st3" d="M17.966,144.224v-27.39h22.2v25.364v2.026H17.966L17.966,144.224z M38.155,142.198v-2.021V142.198
			L38.155,142.198z M22.001,140.177h14.122v-19.307H22.001V140.177L22.001,140.177z"/>
	</g>
</g>
</svg>
